<svg width="50" height="50" viewBox="0 0 50 50" fill="none" xmlns="http://www.w3.org/2000/svg">
<path d="M47 4.16667V45.8333C47 46.9384 46.569 47.9982 45.8018 48.7796C45.0346 49.561 43.9941 50 42.9091 50H32.6818C31.5968 50 30.5563 49.561 29.7891 48.7796C29.0219 47.9982 28.5909 46.9384 28.5909 45.8333V4.16667C28.5909 3.0616 29.0219 2.00179 29.7891 1.22039C30.5563 0.438987 31.5968 0 32.6818 0H42.9091C43.9941 0 45.0346 0.438987 45.8018 1.22039C46.569 2.00179 47 3.0616 47 4.16667ZM16.3182 0H6.09091C5.00593 0 3.96539 0.438987 3.1982 1.22039C2.43101 2.00179 2 3.0616 2 4.16667V45.8333C2 46.9384 2.43101 47.9982 3.1982 48.7796C3.96539 49.561 5.00593 50 6.09091 50H16.3182C17.4032 50 18.4437 49.561 19.2109 48.7796C19.9781 47.9982 20.4091 46.9384 20.4091 45.8333V4.16667C20.4091 3.0616 19.9781 2.00179 19.2109 1.22039C18.4437 0.438987 17.4032 0 16.3182 0Z" fill="#222F33"/>
</svg>
